<svg width="100" height="100" xmlns="http://www.w3.org/2000/svg" xmlns:svg="http://www.w3.org/2000/svg">
    <g fill="#505050">
        <path d="m40,30l0,0c0,0.55228 -0.44772,1 -1,1l0,0l-7.5,0c-0.27614,0 -0.5,0.22386 -0.5,0.5l0,0l0,7.5c0,0.55228 -0.44772,1 -1,1l0,0l0,0c-0.55228,0 -1,-0.44772 -1,-1l0,-9c0,-0.55228 0.44772,-1 1,-1l0,0l9,0c0.55228,0 1,0.44772 1,1l0,0zm30,10l0,0c-0.55228,0 -1,-0.44772 -1,-1l0,-7.5c0,-0.27614 -0.22385,-0.5 -0.5,-0.5l0,0l-7.5,0c-0.55228,0 -1,-0.44772 -1,-1l0,0l0,0c0,-0.55228 0.44772,-1 1,-1l0,0l9,0c0.55228,0 1,0.44772 1,1l0,0l0,9c0,0.55228 -0.44772,1 -1,1zm-40,20l0,0c0.55228,0 1,0.44772 1,1l0,0l0,7.5c0,0.27615 0.22386,0.5 0.5,0.5l7.5,0c0.55228,0 1,0.44772 1,1c0,0.55228 -0.44772,1 -1,1l-9,0c-0.55228,0 -1,-0.44772 -1,-1l0,-9c0,-0.55228 0.44772,-1 1,-1l0,0zm30,10c0,-0.55228 0.44772,-1 1,-1l7.5,0c0.27615,0 0.5,-0.22385 0.5,-0.5l0,-7.5c0,-0.55228 0.44772,-1 1,-1c0.55228,0 1,0.44772 1,1l0,9c0,0.55228 -0.44772,1 -1,1l-9,0c-0.55228,0 -1,-0.44772 -1,-1z"/>
    </g>
</svg>