<svg width="100" height="100"  xmlns="http://www.w3.org/2000/svg" xmlns:xlink="http://www.w3.org/1999/xlink">
    <symbol id="account" viewBox="0 0 100 100">
        <path d="m67,69c0,0.55228 -0.44772,1 -1,1c-0.55228,0 -1,-0.44772 -1,-1c0,-8.28427 -6.71573,-15 -15,-15c-8.28427,0 -15,6.71573 -15,15c0,0.55228 -0.44772,1 -1,1c-0.55228,0 -1,-0.44772 -1,-1c0,-9.38884 7.61116,-17 17,-17c9.38884,0 17,7.61116 17,17zm-17,-19c-5.52285,0 -10,-4.47715 -10,-10c0,-5.52285 4.47715,-10 10,-10c5.52285,0 10,4.47715 10,10c0,5.52285 -4.47715,10 -10,10zm0,-2c4.41828,0 8,-3.58172 8,-8c0,-4.41828 -3.58172,-8 -8,-8c-4.41828,0 -8,3.58172 -8,8c0,4.41828 3.58172,8 8,8z"/>
    </symbol>
    <use xlink:href="#account" />
</svg>
