<svg width="100" height="100"  xmlns="http://www.w3.org/2000/svg" xmlns:xlink="http://www.w3.org/1999/xlink">
    <symbol id="arrow-down" viewBox="0 0 100 100">
        <path d="m50.0039,80c0.3652,-0.05005 0.9655,-0.20325 1.25,-0.4375l15.00004,-12c0.89244,-0.71393 0.967,-1.99438 0.3125,-2.8125c-0.6545,-0.81812 -1.99438,-0.96698 -2.8125,-0.3125l-11.75004,9.40625l0,-51.84375c0,-1.10461 -0.8954,-2 -2,-2c-1.1046,0 -2,0.89539 -2,2l0,51.84375l-11.75,-9.40625c-0.8181,-0.65448 -2.1158,-0.47003 -2.8125,0.3125c-0.7283,0.81812 -0.5056,2.15802 0.3125,2.8125l15,12c0.4144,0.33862 0.7226,0.4104 1.25,0.4375z"/>
    </symbol>
    <use xlink:href="#arrow-down" />
</svg>