<svg width="100" height="100"  xmlns="http://www.w3.org/2000/svg" xmlns:xlink="http://www.w3.org/1999/xlink">
    <symbol id="gamepad" viewBox="0 0 100 100">
        <path d="m85,34.931l0,-2.263c0,-0.239 -0.136,-0.457 -0.35,-0.562c-2.858,-1.397 -5.894,-2.106 -9.025,-2.106l-10,0c-0.345,0 -0.625,0.28 -0.625,0.625l0,1.875l-30,0l0,-1.875c0,-0.345 -0.28,-0.625 -0.625,-0.625l-10,0c-3.131,0 -6.167,0.709 -9.025,2.107c-0.214,0.105 -0.35,0.323 -0.35,0.561l0,2.263c-5.956,3.309 -10,9.661 -10,16.944c0,10.684 8.691,19.375 19.375,19.375c4.792,0 9.385,-1.774 12.96,-5l25.33,0c3.575,3.226 8.168,5 12.96,5c10.684,0 19.375,-8.691 19.375,-19.375c0,-7.283 -4.044,-13.635 -10,-16.944zm-18.75,-3.681l9.375,0c2.812,0 5.543,0.61 8.125,1.813l0,1.247c-2.475,-1.15 -5.221,-1.81 -8.125,-1.81l-9.375,0l0,-1.25zm-50,1.813c2.582,-1.203 5.313,-1.813 8.125,-1.813l9.375,0l0,1.25l-9.375,0c-2.904,0 -5.65,0.66 -8.125,1.81l0,-1.247zm59.375,36.937c-4.558,0 -8.924,-1.717 -12.293,-4.834l-0.18,-0.166l-26.304,0l-0.18,0.166c-3.369,3.117 -7.735,4.834 -12.293,4.834c-9.994,0 -18.125,-8.131 -18.125,-18.125s8.131,-18.125 18.125,-18.125l51.25,0c9.994,0 18.125,8.131 18.125,18.125s-8.131,18.125 -18.125,18.125z"/>
        <path d="m75.625,35c-9.305,0 -16.875,7.57 -16.875,16.875s7.57,16.875 16.875,16.875s16.875,-7.57 16.875,-16.875s-7.57,-16.875 -16.875,-16.875zm0,32.5c-8.616,0 -15.625,-7.009 -15.625,-15.625s7.009,-15.625 15.625,-15.625s15.625,7.009 15.625,15.625s-7.009,15.625 -15.625,15.625z"/>
        <path d="m24.375,40c-6.548,0 -11.875,5.327 -11.875,11.875s5.327,11.875 11.875,11.875s11.875,-5.327 11.875,-11.875s-5.327,-11.875 -11.875,-11.875zm0,22.5c-5.858,0 -10.625,-4.767 -10.625,-10.625s4.767,-10.625 10.625,-10.625s10.625,4.767 10.625,10.625s-4.767,10.625 -10.625,10.625z"/>
        <path d="m27.5,48.75l0,-4.375c0,-0.345 -0.28,-0.625 -0.625,-0.625l-5,0c-0.345,0 -0.625,0.28 -0.625,0.625l0,4.375l-4.375,0c-0.345,0 -0.625,0.28 -0.625,0.625l0,5c0,0.345 0.28,0.625 0.625,0.625l4.375,0l0,4.375c0,0.345 0.28,0.625 0.625,0.625l5,0c0.345,0 0.625,-0.28 0.625,-0.625l0,-4.375l4.375,0c0.345,0 0.625,-0.28 0.625,-0.625l0,-5c0,-0.345 -0.28,-0.625 -0.625,-0.625l-4.375,0zm-7.187,4.375c0,0.108 -0.056,0.209 -0.148,0.266c-0.05,0.031 -0.107,0.047 -0.164,0.047c-0.048,0 -0.096,-0.011 -0.14,-0.033l-2.5,-1.25c-0.106,-0.053 -0.173,-0.161 -0.173,-0.279s0.067,-0.227 0.173,-0.279l2.5,-1.25c0.097,-0.049 0.211,-0.044 0.304,0.014c0.092,0.057 0.148,0.157 0.148,0.266l0,2.498zm5.591,3.265l-1.25,2.5c-0.053,0.106 -0.161,0.173 -0.279,0.173s-0.227,-0.067 -0.279,-0.173l-1.25,-2.5c-0.049,-0.097 -0.043,-0.212 0.014,-0.304c0.057,-0.092 0.157,-0.148 0.266,-0.148l2.5,0c0.108,0 0.209,0.056 0.266,0.148c0.056,0.092 0.061,0.207 0.012,0.304zm-0.013,-8.726c-0.057,0.092 -0.157,0.148 -0.266,0.148l-2.5,0c-0.108,0 -0.209,-0.056 -0.266,-0.148c-0.057,-0.092 -0.063,-0.207 -0.014,-0.304l1.25,-2.5c0.105,-0.212 0.453,-0.212 0.559,0l1.25,2.5c0.049,0.097 0.044,0.212 -0.013,0.304zm5.499,4.49l-2.5,1.25c-0.044,0.022 -0.092,0.033 -0.14,0.033c-0.057,0 -0.114,-0.016 -0.164,-0.047c-0.092,-0.057 -0.148,-0.157 -0.148,-0.266l0,-2.5c0,-0.108 0.056,-0.209 0.148,-0.266c0.091,-0.058 0.208,-0.063 0.304,-0.014l2.5,1.25c0.106,0.053 0.173,0.161 0.173,0.279s-0.067,0.229 -0.173,0.281z"/>
        <path d="m80.625,45c0,-2.416 -1.959,-4.375 -4.375,-4.375c-0.947,0 -1.824,0.301 -2.54,0.813l-8.75,6.25c-1.111,0.793 -1.835,2.093 -1.835,3.563c0,2.416 1.959,4.375 4.375,4.375c0.947,0 1.824,-0.301 2.54,-0.813l8.75,-6.25c1.111,-0.794 1.835,-2.094 1.835,-3.563zm-13.125,9.375c-1.726,0 -3.125,-1.399 -3.125,-3.125s1.399,-3.125 3.125,-3.125s3.125,1.399 3.125,3.125s-1.399,3.125 -3.125,3.125zm8.75,-6.25c-1.726,0 -3.125,-1.399 -3.125,-3.125s1.399,-3.125 3.125,-3.125s3.125,1.399 3.125,3.125s-1.399,3.125 -3.125,3.125z"/>
        <path d="m85,46.875c-0.947,0 -1.824,0.301 -2.54,0.813l-8.75,6.25c-1.111,0.793 -1.835,2.093 -1.835,3.563c0,2.416 1.959,4.375 4.375,4.375c0.947,0 1.824,-0.301 2.54,-0.813l8.75,-6.25c1.111,-0.793 1.835,-2.093 1.835,-3.563c0,-2.416 -1.959,-4.375 -4.375,-4.375zm-8.75,13.75c-1.726,0 -3.125,-1.399 -3.125,-3.125s1.399,-3.125 3.125,-3.125s3.125,1.399 3.125,3.125s-1.399,3.125 -3.125,3.125zm8.75,-6.25c-1.726,0 -3.125,-1.399 -3.125,-3.125s1.399,-3.125 3.125,-3.125s3.125,1.399 3.125,3.125s-1.399,3.125 -3.125,3.125z"/>
        <path d="m43.491,52.241l-3.75,3.75c-0.488,0.488 -0.488,1.279 0,1.768c0.244,0.244 0.564,0.366 0.884,0.366s0.64,-0.122 0.884,-0.366l3.75,-3.75c0.488,-0.488 0.488,-1.279 0,-1.768s-1.28,-0.488 -1.768,0z"/>
        <path d="m53.491,52.241l-3.75,3.75c-0.488,0.488 -0.488,1.279 0,1.768c0.244,0.244 0.564,0.366 0.884,0.366s0.64,-0.122 0.884,-0.366l3.75,-3.75c0.488,-0.488 0.488,-1.279 0,-1.768s-1.28,-0.488 -1.768,0z"/>
    </symbol>
    <use xlink:href="#gamepad" />
</svg>