<svg width="100" height="100"  xmlns="http://www.w3.org/2000/svg" xmlns:xlink="http://www.w3.org/1999/xlink">
    <symbol id="gear" viewBox="0 0 100 100">
        <path d="m41.8125,7.00439a1.0001,1.00005 0 0 0 -0.8125,0.99994l0,9.28076c-2.80438,0.80609 -5.41063,2.06061 -7.8125,3.46857l-6.46875,-6.46838a1.0001,1.00005 0 0 0 -1.4375,0l-11,10.99945a1.0001,1.00005 0 0 0 0,1.40613l6.5,6.49969c-1.40173,2.3999 -2.66981,5.01965 -3.46875,7.81207l-9.3125,0a1.0001,1.00005 0 0 0 -1,1l0,15.99921a1.0001,1.00005 0 0 0 1,0.99988l9.3125,0c0.79961,2.78192 2.07178,5.38922 3.46875,7.78088l-6.5,6.49963a1.0001,1.00005 0 0 0 0,1.40613l11,10.99951a1.0001,1.00005 0 0 0 1.4375,0l6.46875,-6.46851c2.4054,1.40613 5.01223,2.6676 7.8125,3.46863l0,9.31201a1.0001,1.00005 0 0 0 1,1l16,0a1.0001,1.00005 0 0 0 1,-1l0,-9.31201c2.8003,-0.80103 5.40711,-2.0625 7.8125,-3.46863l6.46875,6.46851a1.0001,1.00005 0 0 0 1.4375,0l11,-10.99951a1.0001,1.00005 0 0 0 0,-1.40613l-6.5,-6.49963c1.39697,-2.39166 2.66914,-4.99896 3.46875,-7.78088l9.3125,0a1.0001,1.00005 0 0 0 1,-0.99988l0,-15.99921a1.0001,1.00005 0 0 0 -1,-1l-9.3125,0c-0.79894,-2.79242 -2.06703,-5.41217 -3.46875,-7.81207l6.5,-6.49969a1.0001,1.00005 0 0 0 0,-1.40613l-11,-10.99945a1.0001,1.00005 0 0 0 -1.4375,0l-6.46875,6.46838c-2.40186,-1.40796 -5.00812,-2.66241 -7.8125,-3.46851l0,-9.28076a1.0001,1.00005 0 0 0 -1,-0.99994l-16,0a1.0001,1.00005 0 0 0 -0.1875,0l0,-0.00006zm1.1875,1.99994l14,0l0,8.96826a1.0001,1.00005 0 0 0 0.75,0.96875c3.04988,0.75916 6.03031,2.27069 8.75,3.90601a1.0001,1.00005 0 0 0 1.21875,-0.15625l6.28125,-6.28094l9.5625,9.59326l-6.28125,6.28094a1.0001,1.00005 0 0 0 -0.125,1.21869c1.63254,2.71478 3.1143,5.66266 3.875,8.71826a1.0001,1.00005 0 0 0 0.96875,0.78125l9,0l0,13.99927l-9,0a1.0001,1.00005 0 0 0 -0.96875,0.75c-0.7607,3.0556 -2.24246,6.00342 -3.875,8.71832a1.0001,1.00005 0 0 0 0.125,1.21869l6.28125,6.31213l-9.5625,9.56201l-6.28125,-6.28101a1.0001,1.00005 0 0 0 -1.21875,-0.15613c-2.71494,1.63245 -5.69421,3.14551 -8.75,3.90601a1.0001,1.00005 0 0 0 -0.75,0.96875l0,8.99951l-14,0l0,-8.99951a1.0001,1.00005 0 0 0 -0.75,-0.96875c-3.05583,-0.76062 -6.03508,-2.27356 -8.75,-3.90601a1.0001,1.00005 0 0 0 -1.21875,0.15625l-6.28125,6.28101l-9.5625,-9.56201l6.28125,-6.31226a1.0001,1.00005 0 0 0 0.125,-1.21869c-1.63255,-2.7149 -3.1143,-5.66272 -3.875,-8.71832a1.0001,1.00005 0 0 0 -0.96875,-0.75l-9,0l0,-13.99927l9,0a1.0001,1.00005 0 0 0 0.96875,-0.78119c0.7607,-3.05566 2.24245,-6.00348 3.875,-8.71832a1.0001,1.00005 0 0 0 -0.125,-1.21869l-6.28125,-6.28094l9.5625,-9.59326l6.28125,6.28094a1.0001,1.00005 0 0 0 1.21875,0.15625c2.71969,-1.63531 5.70012,-3.14685 8.75,-3.90607a1.0001,1.00005 0 0 0 0.75,-0.96869l0,-8.96826zm7,15.99915c-13.79528,0 -25,11.20416 -25,24.99878c0,13.79462 11.20472,24.99872 25,24.99872c13.79528,0 25,-11.2041 25,-24.99872c0,-13.79462 -11.20472,-24.99878 -25,-24.99878zm0,1.99994c12.7144,0 23,10.28503 23,22.99884c0,12.71368 -10.2856,22.99884 -23,22.99884c-12.7144,0 -23,-10.28516 -23,-22.99884c0,-12.71381 10.2856,-22.99884 23,-22.99884z"/>    
    </symbol>
    <use xlink:href="#gear" />
</svg>
