<svg width="100" height="100"  xmlns="http://www.w3.org/2000/svg" xmlns:xlink="http://www.w3.org/1999/xlink">
    <symbol id="globe" viewBox="0 0 100 100">
        <path d="m50.00003,7.00018c-14.40823,0 -27.16473,7.11237 -34.96875,18c-0.003,0.005 -0.0278,-0.005 -0.0312,0l0,0.03119c-5.03704,7.04242 -8,15.65625 -8,24.96875c0,9.31262 2.96296,17.92639 8,24.96875l-0.00005,0.03101c0.003,0 0.0278,0 0.0312,0c7.80402,10.8877 20.56052,18 34.96875,18c14.40823,0 27.16473,-7.1123 34.96875,-18c0.008,-0.01196 0.0228,-0.01892 0.0312,-0.03101c5.03704,-7.04236 8,-15.65613 8,-24.96875c0,-9.3125 -2.96296,-17.92633 -8,-24.96875c-0.008,-0.01178 -0.0228,-0.01941 -0.0312,-0.03119c-7.80397,-10.88776 -20.56047,-18.00012 -34.9687,-18.00012l0,0.00012zm-1,2.0625l0,15.9375l-15.65625,0c0.58999,-1.50293 1.21808,-2.92554 1.90625,-4.25c3.66351,-6.69366 8.17092,-11.07355 13.75,-11.6875zm2,0c5.30511,0.4762 10.12487,4.71051 13.75,11.6875c0.68817,1.32446 1.31626,2.74707 1.90625,4.25l-15.65625,0l0,-15.9375zm-9.4375,0.8125c-3.1244,2.23602 -5.8767,5.67053 -8.09375,9.9375c-0.835,1.60706 -1.59158,3.35138 -2.28125,5.1875l-13.6875,0c5.85984,-7.60962 14.31482,-13.09186 24.0625,-15.125zm16.875,0c9.74768,2.03314 18.20266,7.51538 24.0625,15.125l-13.6875,0c-0.68967,-1.83612 -1.44625,-3.58044 -2.28125,-5.1875c-2.21705,-4.26697 -4.96935,-7.70148 -8.09375,-9.9375zm-42.40625,17.125l14.4375,0c-1.40295,4.22607 -2.41176,8.9577 -2.96875,14.00006l-17.5,0c1.13693,-5.08606 3.19958,-9.82263 6.03125,-14.00006zm16.5625,0l16.40625,0l0,14.00006l-19.5,0c0.58078,-5.09631 1.64853,-9.8208 3.09375,-14.00006zm18.40625,0l16.40625,0c1.44522,4.17926 2.51297,8.90375 3.09375,14.00006l-19.5,0l0,-14.00006zm18.53125,0l14.4375,0c2.83167,4.17743 4.89432,8.914 6.03125,14.00006l-17.5,0c-0.55699,-5.04236 -1.5658,-9.77399 -2.96875,-14.00006zm-59.9375,16.00006l17.71875,0c-0.19371,2.28308 -0.3125,4.61292 -0.3125,7c0,2.38696 0.11879,4.71887 0.3125,7l-17.71875,0c-0.39007,-2.27271 -0.59375,-4.61554 -0.59375,-7c0,-2.38458 0.20368,-4.72742 0.59375,-7zm19.71875,0l19.6875,0l0,14l-19.6875,0c-0.20024,-2.27759 -0.3125,-4.60889 -0.3125,-7c0,-2.38763 0.11286,-4.72363 0.3125,-7zm21.6875,0l19.6875,0c0.19964,2.27637 0.3125,4.61237 0.3125,7c0,2.39111 -0.11226,4.72241 -0.3125,7l-19.6875,0l0,-14zm21.6875,0l17.71875,0c0.39007,2.27258 0.59375,4.61542 0.59375,7c0,2.38446 -0.20368,4.72729 -0.59375,7l-17.71875,0c0.19371,-2.28113 0.3125,-4.61304 0.3125,-7c0,-2.38708 -0.11879,-4.71692 -0.3125,-7zm-62.6875,16l17.5,0c0.55862,5.05151 1.59068,9.7702 3,14l-14.46875,0c-2.83167,-4.17743 -4.89432,-8.914 -6.03125,-14zm19.53125,0l19.46875,0l0,14l-16.375,0c-1.44947,-4.17603 -2.51061,-8.90381 -3.09375,-14zm21.46875,0l19.46875,0c-0.58314,5.09619 -1.64428,9.82397 -3.09375,14l-16.375,0l0,-14zm21.5,0l17.5,0c-1.13693,5.086 -3.19958,9.82257 -6.03125,14l-14.46875,0c1.40932,-4.2298 2.44138,-8.94849 3,-14zm-55,16l13.6875,0c0.68887,1.83093 1.44749,3.55164 2.28125,5.15613c2.22942,4.29089 5.01008,7.72534 8.15625,9.96887c-9.77312,-2.02307 -18.25304,-7.49976 -24.125,-15.125zm15.84375,0l15.65625,0l0,15.9375c-5.30511,-0.47949 -10.12487,-4.74182 -13.75,-11.71887c-0.68402,-1.31628 -1.3192,-2.72742 -1.90625,-4.21863zm17.65625,0l15.65625,0c-0.58705,1.49121 -1.22223,2.90234 -1.90625,4.21863c-3.62513,6.97705 -8.44489,11.23938 -13.75,11.71887l0,-15.9375zm17.8125,0l13.6875,0c-5.87196,7.62524 -14.35188,13.10193 -24.125,15.125c3.14617,-2.24353 5.92683,-5.67798 8.15625,-9.96887c0.83376,-1.60449 1.59238,-3.3252 2.28125,-5.15613z"/>
    </symbol>
    <use xlink:href="#globe" />
</svg>