<svg width="65" height="65"  xmlns="http://www.w3.org/2000/svg" xmlns:xlink="http://www.w3.org/1999/xlink">
    <symbol id="hands" viewBox="0 0 65 65">
        <path d="m40.1,13.1c-0.6,0 -1.1,0.2 -1.6,0.5l0,-0.9c0,-0.8 -0.3,-1.6 -0.9,-2.2c-0.6,-0.6 -1.3,-0.9 -2.2,-0.9c-0.6,0 -1.2,0.2 -1.6,0.5c-0.1,-0.6 -0.4,-1.2 -0.9,-1.7c-0.6,-0.6 -1.4,-0.9 -2.2,-0.9c-1.7,0 -3.1,1.4 -3.1,3.1l0,0.8c-0.5,-0.3 -1,-0.5 -1.6,-0.5c-1.5,0 -2.7,1 -3,2.4l-0.1,0l0,0.6c0,0 0,0.1 0,0.1l0.1,7.6l0,3.9l-0.7,-1.1c-0.3,-0.6 -0.7,-1.1 -1,-1.5c-1.2,-1.4 -3,-1.2 -4.1,-0.5c-1.3,0.9 -1.6,2.5 -0.8,3.9l7.8,12.4l0,5l1.5,0l0,-5.4l-8,-12.8c-0.5,-0.8 -0.1,-1.6 0.4,-1.9c0.6,-0.4 1.4,-0.5 2.1,0.2c0.3,0.3 0.6,0.7 0.9,1.2l1.8,3c0.2,0.3 0.6,0.5 1,0.4c0.4,-0.1 0.7,-0.5 0.7,-0.9l0,-3.1l0,0l0,-3l0,-7.4c0.1,-0.8 0.7,-1.5 1.6,-1.5c0,0 0,0 0,0c0.9,0 1.6,0.7 1.6,1.5l0.1,7.2l0,0l0,3.4l1.5,0l-0.1,-10.6c0,0 0,0 0,0l0,-3.4c0,-0.9 0.7,-1.6 1.6,-1.6c0,0 0,0 0,0c0.4,0 0.8,0.2 1.1,0.5c0.3,0.3 0.5,0.7 0.5,1.1l0.1,10.6l0,0l0,2.1l1.5,0l-0.1,-10.6c0,-0.9 0.7,-1.6 1.6,-1.6c0,0 0,0 0,0c0.4,0 0.8,0.2 1.1,0.5c0.3,0.3 0.5,0.7 0.5,1.1l0.1,10.6l0,0l0,3.5l1.5,0l-0.1,-10.6c0,-0.9 0.7,-1.6 1.6,-1.6c0,0 0,0 0,0c0.9,0 1.6,0.7 1.6,1.6l0,16.5c0,1.3 -0.4,4.7 -2.2,5.2l-0.7,0.2l0.1,4.3l1.5,0l-0.1,-3.2c2.8,-1.4 2.8,-6.2 2.8,-6.4l0,-16.5c-0.1,-1.9 -1.5,-3.2 -3.2,-3.2z"/>
        <path d="m17.4,34.8c0,0 0,0 0,0c-0.4,0 -0.7,0.1 -1,0.2l0,-0.3c0,-0.7 -0.3,-1.3 -0.7,-1.7c-0.5,-0.5 -1.1,-0.7 -1.7,-0.7c-0.4,0 -0.7,0.1 -1.1,0.3c-0.1,-0.4 -0.3,-0.7 -0.6,-1c-0.5,-0.5 -1.1,-0.7 -1.7,-0.7c0,0 0,0 0,0c-1.3,0 -2.4,1.1 -2.4,2.5l0,0.2c-0.3,-0.1 -0.6,-0.2 -0.9,-0.2c-1.2,0 -2.1,0.8 -2.4,2l0,0l0,0.4c0,0 0,0.1 0,0.1l0,5.2l0,2.4l-0.1,-0.2c-0.2,-0.4 -0.5,-0.8 -0.8,-1.1c-0.9,-1.1 -2.3,-1 -3.2,-0.4c-1,0.7 -1.3,2 -0.6,3.2l5.6,8.9l0,3.6l1.5,0l0,-4l-5.8,-9.3c-0.4,-0.6 0.1,-1 0.2,-1.1c0.3,-0.2 0.8,-0.3 1.2,0.1c0.1,0.2 0.3,0.5 0.6,0.8l1.3,2.2c0.2,0.3 0.6,0.5 1,0.4c0.4,-0.1 0.6,-0.4 0.6,-0.8l0,-2.3l0,0l0,-2.5l0,-5.2c0,-0.5 0.4,-0.9 0.9,-0.9c0.3,0 0.5,0.1 0.7,0.3c0.2,0.2 0.3,0.4 0.3,0.7l0,5.2l0,0l0,2.5l1.5,0l-0.1,-7.7c0,0 0,0 0,0l0,-2.4c0,-0.5 0.4,-0.9 0.9,-1c0.3,0 0.5,0.1 0.7,0.3c0.2,0.2 0.3,0.4 0.3,0.7l0.1,7.7l0,0l0,1.5l1.5,0l-0.2,-7.9c0,-0.3 0.1,-0.5 0.3,-0.7c0.2,-0.2 0.4,-0.3 0.7,-0.3c0.2,0 0.5,0.1 0.7,0.3c0.2,0.2 0.3,0.4 0.3,0.7l0.1,7.7l0,0l0,2.6l1.5,0l-0.1,-7.7c0,-0.5 0.4,-0.9 0.9,-1c0,0 0,0 0,0c0.5,0 0.9,0.4 0.9,0.9l0,12c0,0.8 -0.3,3.2 -1.5,3.6l-0.5,0.1l0.1,3.3l1.5,0l0,-2.2c2,-1.1 2,-4.4 2,-4.8l0,-12c-0.1,-1.4 -1.2,-2.5 -2.5,-2.5z"/>
        <path d="m64.2,41.8c-0.9,-0.6 -2.3,-0.7 -3.2,0.4c-0.3,0.3 -0.5,0.7 -0.8,1.1l-0.1,0.2l0,-2.2l0,-5.4c0,0 0,0 0,-0.1l0,-0.4l0,0c-0.2,-1.1 -1.2,-1.9 -2.4,-2c-0.3,0 -0.6,0.1 -0.9,0.2l0,-0.2c0,-1.3 -1.1,-2.5 -2.4,-2.5c0,0 0,0 0,0c-0.6,0 -1.3,0.2 -1.7,0.7c-0.3,0.3 -0.5,0.7 -0.6,1c-0.3,-0.2 -0.7,-0.3 -1.1,-0.3c-0.7,0 -1.3,0.2 -1.7,0.7c-0.5,0.5 -0.7,1.1 -0.7,1.7l0,0.3c-0.3,-0.1 -0.6,-0.2 -0.9,-0.2c-1.3,0 -2.5,1.1 -2.5,2.4l0,12c0,0.4 0,3.7 2,4.8l0,2.2l1.5,0l0.1,-3.3l-0.6,-0.2c-1.2,-0.3 -1.5,-2.8 -1.5,-3.6l0,-12c0,-0.5 0.4,-0.9 0.9,-0.9c0,0 0,0 0,0c0.5,0 0.9,0.4 0.9,1l0,7.8l1.5,0l0,-2.6l0,0l0.1,-7.7c0,-0.3 0.1,-0.5 0.3,-0.7c0.2,-0.2 0.4,-0.3 0.7,-0.3c0.5,0 0.9,0.4 0.9,1l-0.1,7.7l1.5,0l0,-1.5l0,0l0.1,-7.7c0,-0.3 0.1,-0.5 0.3,-0.7c0.2,-0.2 0.5,-0.3 0.7,-0.3c0.5,0 0.9,0.4 0.9,1l0,2.5c0,0 0,0 0,0l-0.1,7.7l1.5,0l0,-2.5l0,0l0,-5.2c0,-0.2 0.1,-0.5 0.3,-0.7c0.2,-0.2 0.5,-0.3 0.7,-0.3c0.5,0 0.9,0.4 0.9,0.9l0,5.4l0,2.4l0,0l0,2.3c0,0.4 0.3,0.7 0.6,0.8c0.4,0.1 0.8,-0.1 1,-0.4l1.3,-2.2c0.2,-0.3 0.4,-0.6 0.6,-0.9c0.4,-0.5 0.9,-0.4 1.2,-0.1c0.1,0.1 0.6,0.5 0.2,1.2l-5.8,9.3l0,4l1.5,0l0,-3.6l5.6,-8.9l0.1,-0.1c0.5,-1 0.3,-2.3 -0.8,-3z"/>
    </symbol>
    <use xlink:href="#hands" />
</svg>