<svg width="100" height="100"  xmlns="http://www.w3.org/2000/svg" xmlns:xlink="http://www.w3.org/1999/xlink">
    <symbol id="handshake" viewBox="0 0 100 100">
        <path d="m18,64.85a6.06,6.06 0 0 1 -4.3,-1.7a5.49,5.49 0 0 1 -1.35,-5a10,10 0 0 1 2.85,-5.25a10,10 0 0 1 5.25,-2.85a5.5,5.5 0 0 1 5,1.35c2.35,2.43 1.55,7.6 -1.77,10.91a8.06,8.06 0 0 1 -5.68,2.54zm3.65,-12.85a5.24,5.24 0 0 0 -0.87,0.08a8,8 0 0 0 -4.17,2.29a8,8 0 0 0 -2.29,4.17a3.56,3.56 0 0 0 0.79,3.21c1.55,1.55 4.65,1.66 7.16,-0.84s3.32,-6.45 1.73,-8a3.23,3.23 0 0 0 -2.35,-0.91z"/>
        <path d="m24.91,72.67a6,6 0 0 1 -4.26,-1.67a5.32,5.32 0 0 1 -1.27,-4.9a10.17,10.17 0 0 1 2.88,-5.2c3.28,-3.29 7.72,-4 10.1,-1.61s1.55,7.53 -1.73,10.81a8.14,8.14 0 0 1 -5.72,2.57zm3.86,-12.77a7.65,7.65 0 0 0 -5.09,2.42a8.16,8.16 0 0 0 -2.33,4.15a3.4,3.4 0 0 0 0.72,3.12c1.5,1.5 4.67,1.59 7.16,-0.89999a8.78,8.78 0 0 0 2.39,-4.51a4,4 0 0 0 -0.62,-3.49a3,3 0 0 0 -2.23,-0.8l0,0.01z"/>
        <path d="m31.91,80.32a5.71,5.71 0 0 1 -4.11,-1.57a5.46,5.46 0 0 1 -1.38,-4.87a9.71,9.71 0 0 1 2.81,-5.2c3.29,-3.29 7.9,-4 10.28,-1.65s1.86,7.38 -1.29,10.53l0,0a9.15,9.15 0 0 1 -6.31,2.76zm3.95,-12.7a7.83,7.83 0 0 0 -5.21,2.46999a7.7,7.7 0 0 0 -2.25,4.10001a3.52,3.52 0 0 0 0.82,3.14c1.51,1.50999 5.08,1.33 7.6,-1.19s2.8,-6.18 1.29,-7.7a3.09,3.09 0 0 0 -2.26,-0.81001l0.01,-0.00999zm1.66,9.23l0,0z"/>
        <path d="m38,86.89a4.33,4.33 0 0 1 -3.14,-1.21c-2.09,-2.09 -1.22,-6.37 1.94,-9.54s7,-3.7 9.13,-1.53s1.38,6.24 -1.73,9.39l0,0a9.19,9.19 0 0 1 -6.2,2.89zm4.7,-11.55a6.8,6.8 0 0 0 -4.48,2.22c-2.22,2.27 -3.22,5.44 -1.94,6.71s4.27,0.5 6.51,-1.73s3,-5.22 1.73,-6.51a2.51,2.51 0 0 0 -1.82,-0.69zm0.8,7.9l0,0z"/>
        <path d="m51.9,84.85l-0.2,0c-3.2,-0.15 -6.62,-3.81 -6.62,-6.27a1,1 0 0 1 2,0c0,1.38 2.55,4.17 4.72,4.28s2.81,-2.73 3,-5.11a1,1 0 0 1 0.54,-0.8c0.51,-0.25999 0.77,-0.12 1.85,0.48l0.67,0.36l0.08,0a5.89,5.89 0 0 0 2.31,0.56a5.54,5.54 0 0 0 5.29,-4.67a1,1 0 0 1 0.53,-0.7a1,1 0 0 1 0.93,0.02a5.39,5.39 0 0 0 2.31,0.52a5.46,5.46 0 0 0 5.31001,-6.52a1,1 0 0 1 0.25999,-0.9a1,1 0 0 1 0.89,-0.29a7.14,7.14 0 0 0 1.22,0.11c3.59,0 4.93,-4.87 4.93,-7.93a1,1 0 0 1 2,0c0,5 -2.48,10.11 -7.2,9.93c0,0.06001 0,0.12 0,0.17a7.46,7.46 0 0 1 -7.46,7.46001a7.33,7.33 0 0 1 -2.06001,-0.29a7.46,7.46 0 0 1 -7,5.16a7.64,7.64 0 0 1 -3,-0.68999a5,5 0 0 1 -0.64,-0.31001c-0.76,4.58 -3.12,5.43 -4.66,5.43z"/>
        <path d="m82.93,58.95a1,1 0 0 1 -0.71,-0.29l-23.76,-23.87c-2.76,1.36 -12.13,6 -13.69,6.47s-9,1.18 -12.78,-1.4c-4.28,-2.92 -3.09,-6.51 -2.62,-7.55c0.75,-1.65 13,-9.44 21.54,-13.66a82.62,82.62 0 0 1 8.09,-3.65c4.74,-1.19 9.82,-2.29 12,-1.65a21,21 0 0 1 3.86,1.91c1.8,1 3.85,2.19 5,2.25a42.91,42.91 0 0 0 6.25,-0.86a58.33,58.33 0 0 1 7.29,-1l0,0a1,1 0 0 1 0,2a57.77,57.77 0 0 0 -7,1a41.07,41.07 0 0 1 -6.69,0.89c-1.66,-0.08 -3.83,-1.31 -5.93,-2.51a20.56,20.56 0 0 0 -3.43,-1.72c-2,-0.58 -8.71,1.09 -10.92,1.65a73.64,73.64 0 0 0 -7.77,3.57c-9.2,4.56 -19.66,11.59 -20.5,12.69c-0.55,1.23 -0.7,3.17 2,5c3,2 9.67,1.58 11,1.15s10.6,-5 14.05,-6.68a1,1 0 0 1 1.15,0.19l23.83,23.91c2,-0.7 7.86,-2.69 10.35,-2.58a1,1 0 0 1 1,1a1,1 0 0 1 -1,1l-0.11,0c-2.18,0 -8,1.92 -10.09,2.68a1,1 0 0 1 -0.41,0.06z"/>
        <path d="m26.13,21.67a25.58,25.58 0 0 1 -3.13,-0.12a37,37 0 0 1 -6.71,-2.23c-3.42,-1.32 -7.29,-2.89 -9.79,-2.89a1,1 0 0 1 0,-2c2.85,0 6.94,1.61 10.54,3a36.37,36.37 0 0 0 6.27,2.11c2.89,0.42 19.57,-0.48 28,-1a1,1 0 1 1 0.13,2c-0.86,0.06 -17.74,1.13 -25.31,1.13z"/>
        <path d="m14.7,56.12l-0.1,0c-0.06,0 -5.68,-0.58 -8.1,-0.58a1,1 0 0 1 0,-2c2.52,0 8.07,0.56 8.3,0.59a1,1 0 0 1 -0.1,2l0,-0.01z"/>
    </symbol>
    <use xlink:href="#handshake" />
</svg>
