<svg width="100" height="100"  xmlns="http://www.w3.org/2000/svg" xmlns:xlink="http://www.w3.org/1999/xlink">
    <symbol id="keyboard" viewBox="0 0 100 100">
        <path d="m57.795,46.145l-14.86,0c-1.93,0 -3.5,-1.57 -3.5,-3.5l0,-14.86c0,-1.93 1.57,-3.5 3.5,-3.5l14.86,0c1.93,0 3.5,1.57 3.5,3.5l0,14.86c0,1.93 -1.57,3.5 -3.5,3.5zm-14.86,-20.86c-1.378,0 -2.5,1.122 -2.5,2.5l0,14.86c0,1.378 1.122,2.5 2.5,2.5l14.86,0c1.379,0 2.5,-1.122 2.5,-2.5l0,-14.86c0,-1.378 -1.121,-2.5 -2.5,-2.5l-14.86,0z"/>
        <path d="m49.217,36.681c-0.55,0 -0.81,-0.408 -0.577,-0.906l1.3,-2.785c0.233,-0.499 0.614,-0.499 0.847,0l1.301,2.786c0.233,0.498 -0.026,0.906 -0.576,0.906l-2.295,0l0,-0.001z"/>
        <path d="m57.795,70.312l-14.86,0c-1.93,0 -3.5,-1.57 -3.5,-3.5l0,-14.859c0,-1.93 1.57,-3.5 3.5,-3.5l14.86,0c1.93,0 3.5,1.57 3.5,3.5l0,14.859c0,1.93 -1.57,3.5 -3.5,3.5zm-14.86,-20.859c-1.378,0 -2.5,1.122 -2.5,2.5l0,14.859c0,1.37901 1.122,2.5 2.5,2.5l14.86,0c1.379,0 2.5,-1.12099 2.5,-2.5l0,-14.859c0,-1.379 -1.121,-2.5 -2.5,-2.5l-14.86,0z"/>
        <path d="m51.513,57.917c0.55,0 0.81,0.408 0.577,0.906l-1.301,2.785c-0.233,0.498 -0.614,0.498 -0.847,0l-1.301,-2.785c-0.233,-0.498 0.027,-0.906 0.577,-0.906l2.295,0z"/>
        <path d="m33.628,70l-14.86,0c-1.93,0 -3.5,-1.57 -3.5,-3.5l0,-14.859c0,-1.93 1.57,-3.5 3.5,-3.5l14.86,0c1.93,0 3.5,1.57 3.5,3.5l0,14.859c0,1.93 -1.57,3.5 -3.5,3.5zm-14.86,-20.86c-1.378,0 -2.5,1.122 -2.5,2.5l0,14.86c0,1.379 1.122,2.5 2.5,2.5l14.86,0c1.378,0 2.5,-1.121 2.5,-2.5l0,-14.859c0,-1.379 -1.122,-2.5 -2.5,-2.5l-14.86,0l0,-0.001z"/>
        <path d="m27.845,60.218c0,0.55 -0.408,0.81 -0.906,0.577l-2.785,-1.302c-0.499,-0.232 -0.499,-0.613 0,-0.846l2.785,-1.302c0.499,-0.232 0.906,0.027 0.906,0.577l0,2.296z"/>
        <path d="m81.962,70l-14.86,0c-1.93,0 -3.5,-1.57 -3.5,-3.5l0,-14.859c0,-1.93 1.57,-3.5 3.5,-3.5l14.86,0c1.93,0 3.5,1.57 3.5,3.5l0,14.859c0,1.93 -1.57,3.5 -3.5,3.5zm-14.86,-20.86c-1.379,0 -2.5,1.122 -2.5,2.5l0,14.86c0,1.379 1.121,2.5 2.5,2.5l14.86,0c1.37901,0 2.5,-1.121 2.5,-2.5l0,-14.859c0,-1.379 -1.12099,-2.5 -2.5,-2.5l-14.86,0l0,-0.001z"/>
        <path d="m72.885,57.922c0,-0.55 0.408,-0.81 0.906,-0.577l2.785,1.302c0.498,0.232 0.498,0.613 0,0.846l-2.785,1.302c-0.498,0.232 -0.906,-0.027 -0.906,-0.577l0,-2.296z"/>
    </symbol>
    <use xlink:href="#keyboard" />
</svg>
