<svg width="100" height="100"  xmlns="http://www.w3.org/2000/svg" xmlns:xlink="http://www.w3.org/1999/xlink">
    <symbol id="keys" viewBox="0 0 100 100">
        <path d="m63.83,47.794l-27.785,0c-1.242,0 -2.252,-1.01 -2.252,-2.252l0,-27.786c0,-1.242 1.01,-2.252 2.252,-2.252l27.785,0c1.242,0 2.253,1.01 2.253,2.252l0,27.786c0,1.242 -1.011,2.252 -2.253,2.252zm-27.785,-30.788c-0.414,0 -0.75,0.336 -0.75,0.75l0,27.786c0,0.414 0.336,0.751 0.75,0.751l27.785,0c0.41299,0 0.751,-0.337 0.751,-0.751l0,-27.786c0,-0.415 -0.33801,-0.75 -0.751,-0.75l-27.785,0z"/>
        <path d="m42.177,36.28c-0.192,0 -0.384,-0.073 -0.531,-0.22c-0.293,-0.293 -0.293,-0.769 0,-1.062l7.76,-7.76c0.281,-0.282 0.78,-0.282 1.062,0l7.76,7.76c0.294,0.293 0.294,0.769 0,1.062c-0.293,0.293 -0.769,0.293 -1.062,0l-7.229,-7.229l-7.229,7.229c-0.146,0.147 -0.338,0.22 -0.531,0.22z"/>
        <path d="m63.83,81.587l-27.785,0c-1.242,0 -2.252,-1.011 -2.252,-2.253l0,-27.785c0,-1.242 1.01,-2.253 2.252,-2.253l27.785,0c1.242,0 2.253,1.011 2.253,2.253l0,27.785c0,1.242 -1.011,2.253 -2.253,2.253zm-27.785,-30.789c-0.414,0 -0.75,0.337 -0.75,0.751l0,27.785c0,0.414 0.336,0.75 0.75,0.75l27.785,0c0.41299,0 0.751,-0.336 0.751,-0.75l0,-27.785c0,-0.414 -0.33801,-0.751 -0.751,-0.751l-27.785,0z"/>
        <path d="m49.938,70.072c-0.199,0 -0.39,-0.079 -0.531,-0.22l-7.76,-7.761c-0.293,-0.293 -0.293,-0.769 0,-1.062c0.293,-0.294 0.768,-0.294 1.062,0l7.229,7.229l7.229,-7.229c0.293,-0.294 0.769,-0.294 1.062,0c0.294,0.293 0.294,0.769 0,1.062l-7.76,7.761c-0.141,0.141 -0.332,0.22 -0.531,0.22z"/>
        <path d="m97.622,81.587l-27.785,0c-1.242,0 -2.252,-1.011 -2.252,-2.253l0,-27.785c0,-1.242 1.01,-2.253 2.252,-2.253l27.785,0c1.242,0 2.253,1.011 2.253,2.253l0,27.785c0,1.242 -1.011,2.253 -2.253,2.253zm-27.785,-30.789c-0.41299,0 -0.751,0.337 -0.751,0.751l0,27.785c0,0.414 0.33801,0.75 0.751,0.75l27.785,0c0.414,0 0.751,-0.336 0.751,-0.75l0,-27.785c0,-0.414 -0.337,-0.751 -0.751,-0.751l-27.785,0z"/>
        <path d="m79.85,73.952c-0.191,0 -0.384,-0.07301 -0.53,-0.22c-0.294,-0.293 -0.294,-0.769 0,-1.062l7.229,-7.229l-7.229,-7.229c-0.294,-0.294 -0.294,-0.769 0,-1.062c0.293,-0.294 0.769,-0.294 1.062,0l7.75999,7.76c0.293,0.294 0.293,0.769 0,1.062l-7.75999,7.76c-0.148,0.147 -0.34,0.22 -0.53201,0.22z"/>
        <path d="m30.038,81.587l-27.785,0c-1.242,0 -2.253,-1.011 -2.253,-2.253l0,-27.785c0,-1.242 1.011,-2.253 2.253,-2.253l27.785,0c1.242,0 2.253,1.011 2.253,2.253l0,27.785c0,1.242 -1.011,2.253 -2.253,2.253zm-27.785,-30.789c-0.414,0 -0.751,0.337 -0.751,0.751l0,27.785c0,0.414 0.337,0.75 0.751,0.75l27.785,0c0.414,0 0.751,-0.336 0.751,-0.75l0,-27.785c0,-0.414 -0.337,-0.751 -0.751,-0.751l-27.785,0z"/>
        <path d="m20.025,73.952c-0.191,0 -0.384,-0.07301 -0.531,-0.22l-7.76,-7.76c-0.293,-0.294 -0.293,-0.769 0,-1.062l7.76,-7.76c0.293,-0.294 0.769,-0.294 1.062,0c0.293,0.293 0.293,0.768 0,1.062l-7.23,7.229l7.23,7.229c0.293,0.293 0.293,0.769 0,1.062c-0.147,0.147 -0.339,0.22 -0.531,0.22z"/>
    </symbol>
    <use xlink:href="#keys" />
</svg>