<svg width="847" height="847" xmlns="http://www.w3.org/2000/svg" xmlns:xlink="http://www.w3.org/1999/xlink">
    <symbol id="language" viewBox="0 0 847 847">
        <path d="m345,433c-12,-9 -24,-19 -34,-31c-24,24 -50,46 -79,64l-26,-44c27,-18 51,-38 74,-61c-21,-33 -36,-70 -45,-109l14,-3l-50,0c0,-19 0,-37 0,-56l84,0l0,-23c17,0 34,0 51,0l0,23l83,0l0,56l-17,0c-4,28 -15,55 -29,79c1,0 3,0 5,0l102,0l0,-196l-351,0l0,369l218,0l0,-68zm12,81l-230,0c-7,0 -12,-6 -12,-13l0,-369c0,-7 5,-13 12,-13l351,0c7,0 12,6 12,13l0,202l0,7l-6,0l-108,0c-11,0 -19,8 -19,19c0,11 0,23 0,35c-10,-10 -19,-19 -28,-30c32,-40 55,-77 60,-129l16,0l0,-30l-83,0l0,-23l-27,0l0,23l-83,0l0,30l152,0c-6,45 -23,73 -51,107c-17,-28 -30,-55 -39,-88l-25,7c10,35 27,71 47,101c-22,23 -47,45 -73,63l13,22c28,-19 52,-40 76,-64c14,17 27,30 45,42l0,88zm-72,-265c5,24 17,50 30,72c15,-21 29,-46 34,-72l-64,0z" class="fil0"/>
        <path d="m551,460l1,0l5,0l1,4l1,5c3,12 6,27 10,39l0,0l14,49l2,8l-8,0l-50,0l-8,0l2,-8l14,-49l0,0c2,-8 4,-17 6,-26c1,-6 3,-13 4,-18l1,-4l5,0zm1,31c-2,7 -4,14 -5,20l0,0l-12,41l34,0l-12,-40l0,0c-2,-7 -4,-14 -5,-21z" class="fil0"/>
        <path d="m730,363l-352,0l0,357l352,0l0,-357zm-352,-13l352,0c6,0 12,6 12,13l0,357c0,7 -6,12 -12,12l-352,0c-6,0 -12,-5 -12,-12l0,-357c0,-7 5,-13 12,-13zm202,253l-55,0l-16,59c-22,0 -44,0 -66,0l73,-241l75,0l74,241c-23,0 -45,0 -68,0l-17,-59zm26,46l42,0l-66,-216l-57,0l-65,216l39,0l16,-58c25,0 50,0 74,0l17,58z" class="fil0"/>
        <path d="m542,804c-4,1 -7,3 -11,3c-98,28 -207,18 -303,-36c-92,-52 -156,-136 -185,-230l-35,7l12,-56l13,-56l33,47l33,47l-38,7c28,89 89,168 176,218c89,50 190,60 281,36l24,13z" class="fil0"/>
        <path d="m619,76c92,51 155,133 185,225l35,-12l-5,58l-6,57l-38,-43l-39,-42l35,-12c-28,-88 -89,-166 -176,-215c-89,-50 -189,-60 -281,-37l-23,-13c3,-1 7,-2 10,-3c99,-27 207,-17 303,37z" class="fil0"/>
    </symbol>
    <use xlink:href="#language" />
</svg>