<svg width="100" height="100" xmlns="http://www.w3.org/2000/svg" xmlns:svg="http://www.w3.org/2000/svg">
 <g>
    <path d="m87.5,60l-75,0c-1.4,0 -2.5,1.1 -2.5,2.5l0,30c0,1.4 1.1,2.5 0,2.5l75,0c3.9,0 5,-1.1 5,-2.5l0,-30c0,-1.4 -1.1,-2.5 -2.5,-2.5zm-55,25l-5,0l0,5l-5,0l0,-5l-5,0l0,-5l5,0l0,-5l5,0l0,5l5,0l0,5zm13.8,3.8l-2.5,0c-0.7,0 -1.3,-0.60001 -1.3,-1.3s0.6,-1.3 1.3,-1.3l2.5,0c0.7,0 1.3,0.60001 1.3,1.3s-0.7,1.3 -1.3,1.3zm10,0l-2.5,0c-0.7,0 -1.3,-0.60001 -1.3,-1.3s0.6,-1.3 1.3,-1.3l2.5,0c0.7,0 1.3,0.60001 1.3,1.3s-0.7,1.3 -1.3,1.3zm12.5,1.2c-2.10001,0 -3.8,-1.7 -3.8,-3.8c0,-2.1 1.7,-3.8 3.8,-3.8s3.8,1.7 3.8,3.8c-0.1,2.10001 -1.8,3.8 -3.8,3.8zm0,-12.5c-2.10001,0 -3.8,-1.7 -3.8,-3.8c0,-2.1 1.7,-3.8 3.8,-3.8s3.8,1.7 3.8,3.8c-0.1,2.10001 -1.8,3.8 -3.8,3.8zm12.5,12.5c-2.10001,0 -3.8,-1.7 -3.8,-3.8c0,-2.1 1.7,-3.8 3.8,-3.8s3.8,1.7 3.8,3.8c-0.1,2.10001 -1.8,3.8 -3.8,3.8zm0,-12.5c-2.10001,0 -3.8,-1.7 -3.8,-3.8c0,-2.1 1.7,-3.8 3.8,-3.8s3.8,1.7 3.8,3.8c-0.1,2.10001 -1.8,3.8 -3.8,3.8z"/>
    <path d="m52.5,52.5l-1.3,0c0,-5 5.2,-7.4 11.3,-10.2c7,-3.3 15,-7 15,-16c0,-12.9 -9.8,-20 -27.5,-20l0,2.5c11.4,0 25,3 25,17.5c0,7.4 -6.9,10.6 -13.5,13.7c-6.2,2.9 -12.7,5.9 -12.7,12.5l-1.3,0l-1.3,5l7.5,0l-1.2,-5z"/>
 </g>
</svg>